<svg enable-background="new 0 0 96.991 96.991" version="1.1" viewBox="0 0 96.991 96.991" xml:space="preserve" xmlns="http://www.w3.org/2000/svg"><path d="m84.813 40.106-11.569-11.571c-0.333-0.333-0.785-0.521-1.257-0.521h-11.213v-14.664c0-0.473-0.188-0.924-0.521-1.257l-11.568-11.572c-0.334-0.333-0.786-0.521-1.258-0.521h-33.992c-0.982 0-1.778 0.796-1.778 1.778v65.422c0 0.981 0.796 1.778 1.778 1.778h22.781v26.234c0 0.982 0.796 1.778 1.777 1.778h45.562c0.982 0 1.778-0.796 1.778-1.778v-53.85c2e-3 -0.471-0.186-0.923-0.52-1.256zm-67.466-34.416h27.653l0.014 9.142c0 0.239 0.096 0.469 0.265 0.639 0.169 0.169 0.398 0.264 0.638 0.264h9.17v47.556h-37.74v-57.601zm62.299 85.615h-37.74v-22.326h17.092c0.981 0 1.776-0.795 1.776-1.777v-33.498h8.783l0.015 9.142c0 0.239 0.096 0.469 0.265 0.639 0.17 0.169 0.399 0.264 0.639 0.264h9.17v47.556z" fill="rgba(96, 212, 174, 0.3)"/></svg>