<svg width="476pt" height="476pt" viewBox="0 0 476.76 476" xmlns="http://www.w3.org/2000/svg">
<path d="m451.02 26.117c-34.387-34.312-90.059-34.312-124.45 0v0.046874l-285.58 285.55c-0.64844 0.68359-1.1719 1.4727-1.543 2.3359-0.10156 0.21484-0.19531 0.43359-0.27344 0.65625-0.097656 0.21875-0.1875 0.4375-0.26172 0.66406l-38.656 151.76c-0.71484 2.7422 0.082032 5.6602 2.0859 7.6641s4.9219 2.7969 7.6641 2.0859l151.75-38.641c0.23047-0.0625 0.42969-0.18359 0.65625-0.26172 0.23047-0.078125 0.45703-0.17188 0.67969-0.27344 0.85938-0.37109 1.6484-0.89453 2.3281-1.543l285.54-285.56 0.054688-0.042969c34.32-34.383 34.32-90.062 0-124.45zm-11.312 11.309c25.887 25.949 28.188 67.184 5.3516 95.852l-101.19-101.2c28.664-22.836 69.898-20.531 95.84 5.3516zm-107.47 5.707 101.81 101.76-28.68 28.688-101.81-101.8zm-303.45 376.8c12.629 5.6719 22.742 15.781 28.414 28.414l-38.117 9.7031zm44 24.422c-7.3672-18.199-21.801-32.633-40-40l18.145-71.383 93.23 93.238zm86.977-25.199-101.81-101.79 234.29-234.29 101.8 101.81z" fill="rgba(96, 212, 174, 0.3)"/>
</svg>