<svg enable-background="new 0 0 58.365 58.365" version="1.1" viewBox="0 0 58.365 58.365" xml:space="preserve" xmlns="http://www.w3.org/2000/svg">
<path d="m57.863 26.632-28.681-26.632-28.68 26.632c-0.404 0.376-0.428 1.009-0.052 1.414 0.374 0.404 1.009 0.427 1.413 0.052l3.319-3.082v33.349h48v-33.35l3.319 3.082c0.192 0.179 0.437 0.267 0.681 0.267 0.269 0 0.536-0.107 0.732-0.319 0.377-0.404 0.353-1.037-0.051-1.413zm-34.681 29.733v-16c0-3.309 2.691-6 6-6s6 2.691 6 6v16h-12zm28 0h-14v-16c0-4.411-3.589-8-8-8s-8 3.589-8 8v16h-14v-33.207l22-20.429 22 20.429v33.207z" fill="rgba(96, 212, 174, 0.3)"/>
</svg>