<svg version="1.0" xmlns="http://www.w3.org/2000/svg" width="682.667" height="682.667" viewBox="0 0 512 512"><path d="M345.2 1c-18.3 2.3-40.5 9.9-56.5 19.4-51.9 30.5-80.3 88.5-72.2 147.6 2.1 16 4.4 23.9 12.8 44.3 1.1 2.7 0 3.9-114.1 118L0 445.5V512h129v-63h63v-62h62v-62.5l21.6-21.6 21.6-21.7 7.3 3.4c8.3 3.8 20.7 7.6 33.3 10.1 12 2.4 39.3 2.4 51.7 0 29.2-5.7 54.9-18.7 75.4-38.2 18.4-17.6 31.2-37.3 38.9-60 5.7-16.8 7.5-28 7.6-47.5 0-26.6-4.3-44.8-16-67.8-8-15.9-16.3-27-29.6-39.8-20.8-20-45-32.7-73.1-38.5C381 .5 356.9-.4 345.2 1zm62.9 80.7c16.5 8.2 25.9 22.9 25.9 40.8 0 42.8-54.2 60.8-80.2 26.7C338.4 129 343.7 98.7 365 85c8.8-5.6 14.3-7.1 26-6.8 9.6.3 11.2.6 17.1 3.5z"/></svg>