<svg viewBox="0 0 96.991 96.991" xmlns="http://www.w3.org/2000/svg"><path d="M84.813 40.106L73.244 28.535a1.778 1.778 0 00-1.257-.521H60.774V13.35c0-.473-.188-.924-.521-1.257L48.685.521A1.782 1.782 0 0047.427 0H13.435c-.982 0-1.778.796-1.778 1.778V67.2c0 .981.796 1.778 1.778 1.778h22.781v26.234c0 .982.796 1.778 1.777 1.778h45.562c.982 0 1.778-.796 1.778-1.778v-53.85a1.764 1.764 0 00-.52-1.256zM17.347 5.69H45l.014 9.142a.901.901 0 00.903.903h9.17v47.556h-37.74V5.69zm62.299 85.615h-37.74V68.979h17.092c.981 0 1.776-.795 1.776-1.777V33.704h8.783l.015 9.142a.905.905 0 00.904.903h9.17v47.556z" fill="rgba(96, 212, 174, 0.3)"/></svg>