<svg width="476pt" height="476pt" viewBox="0 0 476.76 476" xmlns="http://www.w3.org/2000/svg"><path d="M451.02 26.117c-34.387-34.312-90.059-34.312-124.45 0v.047L40.99 311.714a7.969 7.969 0 00-1.543 2.336 6.843 6.843 0 00-.273.656 6.89 6.89 0 00-.262.664L.256 467.13c-.715 2.742.082 5.66 2.086 7.664s4.922 2.797 7.664 2.086l151.75-38.64c.23-.063.43-.185.656-.263.23-.078.457-.172.68-.273a7.93 7.93 0 002.328-1.543L450.96 150.6l.055-.043c34.32-34.383 34.32-90.062 0-124.45zm-11.312 11.309c25.887 25.949 28.188 67.184 5.352 95.852l-101.19-101.2c28.664-22.836 69.898-20.531 95.84 5.352zm-107.47 5.707l101.81 101.76-28.68 28.688-101.81-101.8zm-303.45 376.8a56.535 56.535 0 0128.414 28.414l-38.117 9.703zm44 24.422a72.504 72.504 0 00-40-40l18.145-71.383 93.23 93.238zm86.977-25.199l-101.81-101.79 234.29-234.29 101.8 101.81z" fill="rgba(96, 212, 174, 0.3)"/></svg>