<svg viewBox="0 0 512 512" xmlns="http://www.w3.org/2000/svg"><path d="M508.74 246.04c-4.574-6.257-113.56-153.21-252.75-153.21S7.81 239.78 3.24 246.03a16.896 16.896 0 000 19.923c4.569 6.257 113.56 153.21 252.75 153.21s248.17-146.95 252.75-153.2a16.875 16.875 0 000-19.922zM255.99 385.4c-102.53 0-191.33-97.533-217.62-129.42 26.253-31.913 114.87-129.4 217.62-129.4 102.52 0 191.32 97.516 217.62 129.42-26.253 31.912-114.87 129.4-217.62 129.4z" fill="rgba(96, 212, 174, 0.3)"/><path d="M256 154.72c-55.842 0-101.28 45.433-101.28 101.28S200.153 357.28 256 357.28 357.28 311.847 357.28 256 311.847 154.72 256 154.72zm0 168.79c-37.23 0-67.516-30.287-67.516-67.516s30.287-67.516 67.516-67.516 67.516 30.287 67.516 67.516S293.23 323.51 256 323.51z" fill="rgba(96, 212, 174, 0.3)"/></svg>