<?xml version="1.0" standalone="no"?>
<!DOCTYPE svg PUBLIC "-//W3C//DTD SVG 20010904//EN"
 "http://www.w3.org/TR/2001/REC-SVG-20010904/DTD/svg10.dtd">
<svg version="1.0" xmlns="http://www.w3.org/2000/svg"
 width="512.000000pt" height="512.000000pt" viewBox="0 0 512.000000 512.000000"
 preserveAspectRatio="xMidYMid meet">
<metadata>
Created by potrace 1.11, written by Peter Selinger 2001-2013
</metadata>
<g transform="translate(0.000000,512.000000) scale(0.100000,-0.100000)"
fill="#000000" stroke="none">
<path d="M3452 5110 c-183 -23 -405 -99 -565 -194 -519 -305 -803 -885 -722
-1476 21 -160 44 -239 128 -443 11 -27 0 -39 -1141 -1180 l-1152 -1152 0 -333
0 -332 645 0 645 0 0 315 0 315 315 0 315 0 0 310 0 310 310 0 310 0 0 312 0
313 216 216 216 217 73 -34 c83 -38 207 -76 333 -101 120 -24 393 -24 517 0
292 57 549 187 754 382 184 176 312 373 389 600 57 168 75 280 76 475 0 266
-43 448 -160 678 -80 159 -163 270 -296 398 -208 200 -450 327 -731 385 -117
24 -358 33 -475 19z m629 -807 c165 -82 259 -229 259 -408 0 -428 -542 -608
-802 -267 -154 202 -101 505 112 642 88 56 143 71 260 68 96 -3 112 -6 171
-35z"/>
</g>
</svg>
